# xmcd
#
# Track frame offsets: 
#        150
#        13580
#        26839
#        42954
#        55245
#        75748
#        89973
#
# Disc length: 1461 seconds
#
# Revision: 0
# Processed by: cddbd v1.5.2PL0 Copyright (c) Steve Scherf et al.
# Submitted via: ExactAudioCopy v0.99pb3
#
DISCID=5705b307
DTITLE=Cristopher Hawley Rollers - Red Lights Green
DYEAR=2006
DGENRE=Blues
TTITLE0=Dance All Day
TTITLE1=Red Lights Green
TTITLE2=Raising Up Your Life
TTITLE3=Do It All Again
TTITLE4=Hard to Handle
TTITLE5=Monday Comes
TTITLE6=My Friends and Me
EXTD=
EXTT0=
EXTT1=
EXTT2=
EXTT3=
EXTT4=
EXTT5=
EXTT6=
PLAYORDER=
